<svg version="1.1" id="Layer_1" xmlns="http://www.w3.org/2000/svg" xmlns:xlink="http://www.w3.org/1999/xlink" x="0px" y="0px"
	 width="100%" viewBox="0 0 858 969" enable-background="new 0 0 858 969" xml:space="preserve">
<path fill="#FFFFFF" opacity="1.000000" stroke="none" 
	d="
M1.000007,833.000000 
	C1.000000,555.720154 1.000000,278.440277 1.000000,1.080214 
	C286.891357,1.080214 572.782776,1.080214 859.000000,1.080214 
	C859.000000,167.692352 859.000000,334.384918 858.651611,501.350586 
	C857.537964,495.937561 856.848022,490.240112 855.993164,484.567535 
	C853.698364,469.340179 851.887756,454.012970 848.882690,438.925018 
	C842.195435,405.348999 830.572998,373.350006 815.713623,342.582672 
	C809.796875,330.331818 802.912354,318.508453 795.883972,306.842590 
	C781.249634,282.552063 764.249329,259.961212 744.734436,239.380493 
	C735.368774,229.503357 725.605530,219.920776 715.311157,211.028152 
	C703.139587,200.513962 690.502441,190.475876 677.525635,180.970688 
	C655.337524,164.718506 631.472229,151.178314 606.270203,140.179031 
	C592.926514,134.355270 579.359131,128.867722 565.511597,124.412956 
	C539.454956,116.030540 512.914307,109.407669 485.530945,106.996994 
	C468.291138,105.479309 451.025177,103.269539 433.761597,103.180031 
	C354.769165,102.770416 275.773407,102.981209 196.778854,103.042259 
	C191.507568,103.046333 186.213486,103.445114 180.970062,104.023460 
	C165.015274,105.783249 154.550858,114.348892 149.673065,129.706360 
	C146.654541,139.210068 147.440720,148.376541 153.162537,156.515961 
	C161.840195,168.860138 171.058533,180.823227 179.988815,192.991028 
	C195.031174,213.486710 209.976135,234.053986 225.056854,254.521301 
	C243.257431,279.222839 261.633026,303.795654 279.791107,328.528290 
	C296.579803,351.395660 313.131256,374.437073 329.878265,397.335236 
	C349.920563,424.739044 370.012665,452.106689 390.192474,479.409271 
	C394.715698,485.529053 400.624115,489.232513 408.715027,489.062592 
	C420.375763,488.817657 432.048767,488.829376 443.710175,489.057312 
	C452.107330,489.221436 459.090118,486.253296 462.408600,478.690094 
	C465.430145,471.803741 465.626007,464.253174 460.331604,457.633789 
	C458.087830,454.828461 456.326324,451.643219 454.193542,448.742493 
	C436.800446,425.086945 419.346466,401.476166 401.961029,377.815033 
	C387.974426,358.779572 374.111725,339.652924 360.094727,320.639954 
	C345.488037,300.827179 330.698700,281.149017 316.105225,261.326569 
	C298.993103,238.082993 282.004425,214.748520 264.966156,191.450577 
	C261.090759,186.151428 257.231659,180.840347 253.703064,175.998535 
	C317.750793,175.998535 381.517670,175.849045 445.282593,176.132935 
	C457.102417,176.185577 468.924652,177.878006 480.727722,179.003159 
	C499.886230,180.829498 518.470337,185.550797 536.797302,191.123199 
	C563.591064,199.269989 588.974182,210.736084 613.095032,225.002213 
	C634.968872,237.939331 655.351379,252.968674 673.684448,270.476379 
	C685.869568,282.112854 697.049011,294.871094 708.029419,307.683594 
	C722.815063,324.936188 734.998596,344.049408 745.560791,364.152344 
	C756.804688,385.552734 765.851074,407.843597 772.610107,431.093658 
	C779.641113,455.279205 783.969543,479.947296 785.843750,504.990173 
	C786.740234,516.969299 786.389526,529.087036 785.893799,541.112671 
	C785.385254,553.448608 784.211914,565.769226 782.967285,578.059875 
	C781.080444,596.692627 776.491333,614.771729 771.122253,632.668579 
	C763.162659,659.200623 751.930969,684.265198 738.012085,708.212891 
	C724.474060,731.505432 708.278137,752.761414 689.992004,772.449951 
	C676.006531,787.508057 676.844971,809.565247 691.195923,823.438477 
	C704.988464,836.771790 727.660706,836.999451 741.584717,822.762451 
	C749.889160,814.271362 757.839661,805.361694 765.245056,796.078308 
	C782.467346,774.488464 797.608765,751.444946 810.418396,726.977478 
	C821.841614,705.158569 831.174133,682.423889 838.600464,658.898621 
	C848.514221,627.493469 855.147766,595.499512 857.077820,562.573975 
	C857.149536,561.349243 858.334045,560.189819 859.000000,559.000000 
	C859.000000,695.907776 859.000000,832.815491 859.000000,970.000000 
	C786.974426,970.000000 714.948425,970.000000 642.646851,969.655884 
	C655.708557,967.605286 665.614075,960.558411 670.935425,948.494751 
	C675.966675,937.088684 676.640442,924.787415 669.343079,914.019897 
	C659.596985,899.639038 648.883484,885.908997 638.464233,871.990173 
	C621.055725,848.734314 603.526062,825.569153 586.094055,802.330750 
	C567.488525,777.527832 548.932129,752.687988 530.363403,727.857483 
	C512.875854,704.472839 495.427216,681.059082 477.912048,657.695190 
	C459.503357,633.139404 441.025482,608.635498 422.597443,584.094299 
	C406.045593,562.051697 389.522003,539.987976 372.982483,517.936157 
	C365.499298,507.958954 358.575958,497.491150 350.388336,488.129486 
	C337.735229,473.661896 321.329742,466.976868 301.962097,467.993317 
	C286.006531,468.830780 272.233337,474.643585 261.752838,486.795593 
	C254.145828,495.615723 247.292114,505.088928 240.168991,514.322266 
	C225.525955,533.303406 210.832275,552.246582 196.335358,571.338928 
	C179.170303,593.945190 162.229507,616.721558 145.119431,639.369751 
	C129.188995,660.456482 113.106514,681.428345 97.195389,702.529541 
	C78.329857,727.548889 59.513485,752.605896 40.796291,777.736267 
	C28.747486,793.913391 16.898003,810.239258 5.008433,826.534363 
	C3.518016,828.577026 2.328808,830.839417 1.000007,833.000000 
z"/>
<path fill="#FFC23C" opacity="1.000000" stroke="none" 
	d="
M859.000000,558.625000 
	C858.334045,560.189819 857.149536,561.349243 857.077820,562.573975 
	C855.147766,595.499512 848.514221,627.493469 838.600464,658.898621 
	C831.174133,682.423889 821.841614,705.158569 810.418396,726.977478 
	C797.608765,751.444946 782.467346,774.488464 765.245056,796.078308 
	C757.839661,805.361694 749.889160,814.271362 741.584717,822.762451 
	C727.660706,836.999451 704.988464,836.771790 691.195923,823.438477 
	C676.844971,809.565247 676.006531,787.508057 689.992004,772.449951 
	C708.278137,752.761414 724.474060,731.505432 738.012085,708.212891 
	C751.930969,684.265198 763.162659,659.200623 771.122253,632.668579 
	C776.491333,614.771729 781.080444,596.692627 782.967285,578.059875 
	C784.211914,565.769226 785.385254,553.448608 785.893799,541.112671 
	C786.389526,529.087036 786.740234,516.969299 785.843750,504.990173 
	C783.969543,479.947296 779.641113,455.279205 772.610107,431.093658 
	C765.851074,407.843597 756.804688,385.552734 745.560791,364.152344 
	C734.998596,344.049408 722.815063,324.936188 708.029419,307.683594 
	C697.049011,294.871094 685.869568,282.112854 673.684448,270.476379 
	C655.351379,252.968674 634.968872,237.939331 613.095032,225.002213 
	C588.974182,210.736084 563.591064,199.269989 536.797302,191.123199 
	C518.470337,185.550797 499.886230,180.829498 480.727722,179.003159 
	C468.924652,177.878006 457.102417,176.185577 445.282593,176.132935 
	C381.517670,175.849045 317.750793,175.998535 253.703064,175.998535 
	C257.231659,180.840347 261.090759,186.151428 264.966156,191.450577 
	C282.004425,214.748520 298.993103,238.082993 316.105225,261.326569 
	C330.698700,281.149017 345.488037,300.827179 360.094727,320.639954 
	C374.111725,339.652924 387.974426,358.779572 401.961029,377.815033 
	C419.346466,401.476166 436.800446,425.086945 454.193542,448.742493 
	C456.326324,451.643219 458.087830,454.828461 460.331604,457.633789 
	C465.626007,464.253174 465.430145,471.803741 462.408600,478.690094 
	C459.090118,486.253296 452.107330,489.221436 443.710175,489.057312 
	C432.048767,488.829376 420.375763,488.817657 408.715027,489.062592 
	C400.624115,489.232513 394.715698,485.529053 390.192474,479.409271 
	C370.012665,452.106689 349.920563,424.739044 329.878265,397.335236 
	C313.131256,374.437073 296.579803,351.395660 279.791107,328.528290 
	C261.633026,303.795654 243.257431,279.222839 225.056854,254.521301 
	C209.976135,234.053986 195.031174,213.486710 179.988815,192.991028 
	C171.058533,180.823227 161.840195,168.860138 153.162537,156.515961 
	C147.440720,148.376541 146.654541,139.210068 149.673065,129.706360 
	C154.550858,114.348892 165.015274,105.783249 180.970062,104.023460 
	C186.213486,103.445114 191.507568,103.046333 196.778854,103.042259 
	C275.773407,102.981209 354.769165,102.770416 433.761597,103.180031 
	C451.025177,103.269539 468.291138,105.479309 485.530945,106.996994 
	C512.914307,109.407669 539.454956,116.030540 565.511597,124.412956 
	C579.359131,128.867722 592.926514,134.355270 606.270203,140.179031 
	C631.472229,151.178314 655.337524,164.718506 677.525635,180.970688 
	C690.502441,190.475876 703.139587,200.513962 715.311157,211.028152 
	C725.605530,219.920776 735.368774,229.503357 744.734436,239.380493 
	C764.249329,259.961212 781.249634,282.552063 795.883972,306.842590 
	C802.912354,318.508453 809.796875,330.331818 815.713623,342.582672 
	C830.572998,373.350006 842.195435,405.348999 848.882690,438.925018 
	C851.887756,454.012970 853.698364,469.340179 855.993164,484.567535 
	C856.848022,490.240112 857.537964,495.937561 858.651611,501.811829 
	C859.000000,502.444458 859.000000,502.888885 858.634277,503.890015 
	C858.512329,509.297760 858.756165,514.148865 859.000000,519.000000 
	C859.000000,525.687622 859.000000,532.375305 858.633789,539.755615 
	C858.511719,545.632202 858.755859,550.816101 859.000000,556.000000 
	C859.000000,556.750000 859.000000,557.500000 859.000000,558.625000 
z"/>
<path fill="#FFC23C" opacity="1.000000" stroke="none" 
	d="
M1.000007,833.468628 
	C2.328808,830.839417 3.518016,828.577026 5.008433,826.534363 
	C16.898003,810.239258 28.747486,793.913391 40.796291,777.736267 
	C59.513485,752.605896 78.329857,727.548889 97.195389,702.529541 
	C113.106514,681.428345 129.188995,660.456482 145.119431,639.369751 
	C162.229507,616.721558 179.170303,593.945190 196.335358,571.338928 
	C210.832275,552.246582 225.525955,533.303406 240.168991,514.322266 
	C247.292114,505.088928 254.145828,495.615723 261.752838,486.795593 
	C272.233337,474.643585 286.006531,468.830780 301.962097,467.993317 
	C321.329742,466.976868 337.735229,473.661896 350.388336,488.129486 
	C358.575958,497.491150 365.499298,507.958954 372.982483,517.936157 
	C389.522003,539.987976 406.045593,562.051697 422.597443,584.094299 
	C441.025482,608.635498 459.503357,633.139404 477.912048,657.695190 
	C495.427216,681.059082 512.875854,704.472839 530.363403,727.857483 
	C548.932129,752.687988 567.488525,777.527832 586.094055,802.330750 
	C603.526062,825.569153 621.055725,848.734314 638.464233,871.990173 
	C648.883484,885.908997 659.596985,899.639038 669.343079,914.019897 
	C676.640442,924.787415 675.966675,937.088684 670.935425,948.494751 
	C665.614075,960.558411 655.708557,967.605286 642.185669,969.655884 
	C639.299988,970.000000 636.599976,970.000000 633.256653,969.651550 
	C623.541992,968.476685 615.894409,964.747009 610.175110,957.639038 
	C602.760803,948.424438 595.424438,939.137634 588.344727,929.664917 
	C559.275757,890.770630 530.352600,851.767273 501.307953,812.854736 
	C468.725616,769.202576 436.071472,725.604004 403.445923,681.984131 
	C372.885284,641.125000 342.319855,600.269531 311.760406,559.409546 
	C308.416107,554.937927 301.805328,554.675903 298.519623,559.091736 
	C290.978577,569.226501 283.523376,579.425964 276.106720,589.652405 
	C259.742584,612.215881 243.479324,634.852783 227.071808,657.384705 
	C208.437592,682.974365 189.690659,708.482056 170.993164,734.025757 
	C155.976685,754.540649 140.941315,775.041809 125.958687,795.581421 
	C122.176201,800.766846 118.563293,806.075989 114.400414,812.000000 
	C117.519157,812.000000 119.510963,812.000000 121.502769,812.000000 
	C217.990524,812.000000 314.478302,811.972900 410.966003,812.043457 
	C420.236633,812.050232 429.516144,812.500732 438.775238,813.030701 
	C458.427246,814.155518 474.900787,831.430481 472.104736,854.528931 
	C469.598511,875.233032 453.993591,887.101135 434.238159,887.027100 
	C329.811432,886.635864 225.384384,886.322937 120.957382,886.008850 
	C100.460167,885.947205 79.959915,886.193604 59.466480,885.908813 
	C50.753036,885.787720 41.941441,885.317627 33.373543,883.846558 
	C20.058609,881.560425 9.384896,875.027039 3.937008,861.833740 
	C3.108366,859.827087 1.986310,857.941589 0.999994,856.000000 
	C1.000000,848.645752 1.000000,841.291504 1.000007,833.468628 
z"/>
<path fill="#FFFFFF" opacity="1.000000" stroke="none" 
	d="
M0.999994,856.468628 
	C1.986310,857.941589 3.108366,859.827087 3.937008,861.833740 
	C9.384896,875.027039 20.058609,881.560425 33.373543,883.846558 
	C41.941441,885.317627 50.753036,885.787720 59.466480,885.908813 
	C79.959915,886.193604 100.460167,885.947205 120.957382,886.008850 
	C225.384384,886.322937 329.811432,886.635864 434.238159,887.027100 
	C453.993591,887.101135 469.598511,875.233032 472.104736,854.528931 
	C474.900787,831.430481 458.427246,814.155518 438.775238,813.030701 
	C429.516144,812.500732 420.236633,812.050232 410.966003,812.043457 
	C314.478302,811.972900 217.990524,812.000000 121.502769,812.000000 
	C119.510963,812.000000 117.519157,812.000000 114.400414,812.000000 
	C118.563293,806.075989 122.176201,800.766846 125.958687,795.581421 
	C140.941315,775.041809 155.976685,754.540649 170.993164,734.025757 
	C189.690659,708.482056 208.437592,682.974365 227.071808,657.384705 
	C243.479324,634.852783 259.742584,612.215881 276.106720,589.652405 
	C283.523376,579.425964 290.978577,569.226501 298.519623,559.091736 
	C301.805328,554.675903 308.416107,554.937927 311.760406,559.409546 
	C342.319855,600.269531 372.885284,641.125000 403.445923,681.984131 
	C436.071472,725.604004 468.725616,769.202576 501.307953,812.854736 
	C530.352600,851.767273 559.275757,890.770630 588.344727,929.664917 
	C595.424438,939.137634 602.760803,948.424438 610.175110,957.639038 
	C615.894409,964.747009 623.541992,968.476685 632.806641,969.651550 
	C422.456940,970.000000 211.913864,970.000000 1.000000,970.000000 
	C1.000000,932.313232 1.000000,894.625305 0.999994,856.468628 
z"/>
<path fill="#FFFFFF" opacity="1.000000" stroke="none" 
	d="
M859.000000,555.533142 
	C858.755859,550.816101 858.511719,545.632202 858.633789,540.224121 
	C859.000000,545.022095 859.000000,550.044189 859.000000,555.533142 
z"/>
<path fill="#FFFFFF" opacity="1.000000" stroke="none" 
	d="
M859.000000,518.533875 
	C858.756165,514.148865 858.512329,509.297760 858.634277,504.223328 
	C859.000000,508.689240 859.000000,513.378479 859.000000,518.533875 
z"/>
</svg>